<?xml version="1.0" encoding="UTF-8"?>
<svg id="Layer_1" xmlns="http://www.w3.org/2000/svg" version="1.1" viewBox="0 0 360 280">
  <!-- Generator: Adobe Illustrator 30.4.0, SVG Export Plug-In . SVG Version: 2.1.4 Build 226)  -->
  <defs>
    <style>
      .st0 {
        fill: none;
      }

      .st1 {
        fill: #fac81c;
      }

      .st2 {
        fill: #425031;
      }

      .st3 {
        fill: #84acbd;
      }

      .st4 {
        fill: #f3f4c1;
      }

      .st5 {
        fill: #3e4d28;
      }

      .st6 {
        fill: #58754b;
      }
    </style>
  </defs>
  <path class="st5" d="M305.02,114.25c-7.3-34.72-27.93-65.21-57.46-84.9-18.79-12.41-40.44-19.34-62.55-20.35,23.16,3.43,44.49,12.52,62.52,25.8,19.66,13.52,35.55,32.94,45.35,56.42,2.31,5.54,4.29,11.31,5.9,17.27,9.06,34.67,4.17,71.5-13.62,102.62-12.06,20.95-32.13,40.44-54.36,50.26-2.86,1.27-7.28,3.1-10.25,3.96-8.15-2.78-21.76-8.13-25.47-16.15-8.41-18.95,31.51-21.95,23.19-40.54-4.12-9.25-23.46-15.72-32.52-18.93-5.69-2.03-11.97-3.88-17.75-5.93-9.42-3.3-20.47-6.4-25.21-16.13-3.59-7.37-2.58-17.41-.41-25.11,1.62-5.72,9.17-12.77,14.36-15.35,2.58-1.23,5.49-1.97,8.18-2.85,1.95-.63,5.09-2.61,7-2.36,4.28.55,5.93,2.04,10.35,1.15-.52,2.31.11,2.33,2.09,3.26-.75,1.51-1.71,3.85.49,4.83,3.03,1.34,3.9-2.36,5.19-4.34-.09,2.45-.77,4.7,1.32,6.48,4.7,3.99,3.4-3.1,2.89-5.27.71,1.13,1.32,2.56,2.39,3.19,1.38.13,1.09-2.26,1.07-3.21.79.13,2.39.27,2.34-1.04-.09-2.72-2.48-5.27-4.12-7.25-.74-.88-2.86-2.64-1.76-3.73,1.01-.36,2.3-.06,3.26.36.72.94-1.21,5.08,1.6,5.41,1.37.16,1.76-.53,2.45-1.57,0,2.77.02,3.99,1.84,6.09.68.77,1.35,2.78,2.75,3,2.06.17,1.73-4.07,1.73-5.25,1.02,1.64,1.34,2.8,2,4.56.97,2.64,2.56,3.59,3.62.39,1.15,1.05,5.77,4.56,5.63.66-.06-1.68-1.53-3.74-2.17-5.33.83.36,1.84.88,2.67,1.16,3.24,1.07,4.64,2.23,3.54-1.95,7.6-.71,4.17-3.3.06-5.98.53-.44,1.75-1.23,2.04-1.62-.05-2.89-6.53.05-7.83-1.15v-.3c.96-.83,5.58-1.35,6.45-3.55-.17-2.08-3.27-1.95-4.8-1.81.55-.77,1.1-1.32,1.02-2.25-1.07-1.78-5.57.52-6.97,1.13.24-1.09.93-2.55.64-3.43-2.59-1.54-5.85,4.1-7.72,5.69.41-.91,2.22-4.72.22-4.97-1.75-.22-4.8,2.96-6.18,3.98-.85.64-2.78,2.34-1.73,3.44,1.57,1.64,7.94,1.37,8.82,2.69l-.02.17c-.63.11-1.98-.36-2.66-.52-4.36-1.1-8-1.89-12.52-1.81.86-1.27,1.95-2.26,3.21-3.14.75.09,1.59.2,2.34.25,1.42-.63,2.44-1.92,3.62-2.94.94-.82,2.17-1.68,2.97-2.59.28-.9-.02-1.26-.57-1.97-.14-.25-.05-.14-.39-.25-.71-.09-1.43-.2-2.14-.25-.33-1.95-1.4-2.59-3.03-3.55-1.1.82-1.75,1.67-2.64,2.7-.47-4.67-2.31-2.39-4.42-.33-.55-.52-.02-.8-.63-1.18-1.84.58-3.1,2.34-3.95,3.99-.13.25-.25.5-.36.75,1.12.3,1.7.38,2.86.44-1.86,1.48-2.41,2.83.2,3.96.5.14,1.45-.85,1.6-1.02.52-.14,1.2-.36,1.65-.11.13.72-1.26,1.6-1.62,2.2-1.78,2.94-2.47,3.82-6.15,3.98-1.92.09-4.45.57-6.43,1.04.99-2.53,3.41-4.56,5.58-6.07,1.02-.69,3.19-1.98,2.89-3.38-.69-.9-1.65-.69-2.77-1.1.61-1.67,4.54-4.69,5.83-6.12.96-1.05,2.08-2.28,3.1-3.27.44-.39,2.04-.77,2.66-.94.16,2.47.75,2.45,2.75,3.77.46.31.93.72,1.46,1.05.38.02.69.09,1.07.17q.11-.28.28-.53l.25.06c1.16-.52,1.34-1.43,1.67-2.55,1.76,1.23,3.63,5.03,5.71,6.23.88.5,2.31.24,3.33.41,6.04.94,1.18-3.46.36-5.77,2.91,1.57,5.49,5.06,9.06,4.28,3.27-.72.14-4.31-.63-5.99,1.68,1.18,4.26,3.13,6.42,2.14,1.21-1.26-.49-3.52-1.24-4.62,1.35-.58,3.4-1.53,3.98-2.94.75-1.81-2.88-2.52-3.98-2.83.35-.68.52-.82.24-1.54-1.51-1.21-4.98.96-6.53,1.18-1.73.24-3.73.41-5.47.58,2.41-.88,5.2-.58,6.67-1.82.71-.61,3.49-4.29,3.54-5.27-.14-.22-.36-.55-.61-.61-.69-.17-2.77-.99-3.38-.96-1.86.08-3.74,1.38-5.49,2.08.49-1.35,1.81-3.24,1.45-4.54-.22-.22-.3-.36-.64-.31-4.07.42-5.71,4.17-8.02,6.4l-.16.16.02-.13v-.19c.13-1.78,1.64-4.97.75-6.13-1.51-.96-4.2,1.26-5.3,2.17-.03-.86.06-1.71-.8-2.19-2.36-.25-5.54,6.26-6.53,6.65-.25-.36-.09-.99-.16-1.57-.08-.94-.3-1.7-.53-2.59-2.06,1.15-2.75,1.92-4.48,3.51-.5.05-.69.03-1.12.31-.44.68-2.11,5.96-2.15,6.97-.06,1.43,1.38,1.23,2.66,1.23-.71.61-2.26,1.65-3.07,2.2-.66-2.17-1.05-3.07-3.48-2.42-.08,1.09.19,1.95.22,2.92l.11.63c-1.21,3.88-2.39,3.11-5.46,4.59-.93.44-3.7,2.17-4.76,2.78l-.17-.49c-.57-1.68-2.25-3.82-3.32-5.33.13-2.53,1.79-4.36.9-2.42-.28,1.21,3.74,6.15,4.61,5.93,1.09-.28,3.13-1.87,4.17-2.64,5.22-3.87-.79-4.48-1.15-6.81.72-.28,2.7.6,3.62.91,1.23-1.54,6.71-5.44,1.46-6.51-.94-.19-1.92.16-2.72.66-1.05.8-3.52,2.78-4.7,3.05.06-.36,3.82-2.8,4.43-3.29,1.07-.99,2.59-2.78,2.41-4.36-.19-1.45-1.76-1.62-2.78-2.39-.17-.46-.25-.75.14-1.09.31.13.96.41,1.27.39,1.45-.11,1.48.9,2.37,1.9l.13.14c1.38.5,5.58,1.62,6.7.49.61-1.37-.6-2.66-1.57-3.43-.2-.58-.63-1.59-.38-2.15.68.24,1.82,1.86,3.41,2.53,2.28.96,4.36.77,6.7.09.46-.14.64-.46.8-.82-.05-.74-2.06-2.63-2.74-3.41,3.43.99,5.09,2.78,9.23,1.32.53-.19.75-.39.94-.88-.14-.91-1.64-2.14-2.37-2.85,3.66,1.2,7.37.72,3.3-3.22,1.59-.93,6.04-3.55,2.03-4.72-1.67-.49-4.26-.22-6.1-.33.74-1.67,2.08-3.11,2.85-4.67.79-1.6-3.63-2.04-4.59-2.26-1.95.6-2.83,1.4-4.4,2.64.6-1.51,3.96-7.69-.9-5.35-.98.47-1.71,1.37-2.37,2.2-2.39-3.4-4.5,3.16-6.51,4.87l-.16.13c.49-1.84,1.59-3.13,2-4.78-.03-.05-.05-.11-.08-.16-.69-.9-.38-2.74-1.15-3.46-.9-.85-3.3,1.51-3.85,2.08-.33-.47-.42-.6-.83-1.01-1.51-.49-3.46,3.6-4.18,4.67-1.46,2.15-1.18,6.32-.94,8.82.19,2.06,2.7,4.2-1.59,4.64l-.6.08c-3.73,3.92-5.8-.06-4.25-2.25,1.64-.72-.02,3.79,4.26,1.18l.58-.39c.96-.82,1.05-2.08,1.37-3.35-.93-1.84-.38-3.14-.52-5.19-.71-.9-1.59-1.81-1.2-3.02,1.24-.44,3.74-1.78,3.32-3.4-1.01-1.26-4.97-.77-6.45-.53-.57-.52-1.75-1.51-2.03-2.12l.06-.25c.64-.17,2.31.22,3.07.22,3,0,7.72.11,4.87-4.21.97.03,3.99.42,4.07-1.13.06-1.01-1.12-2.04-1.71-2.78,1.67-.96,5.14-3.88,1.26-4.83-1.97-.47-4.75,1.42-6.68,1.75l-.06-.11c1.45-.97,5.96-2.64,2.92-4.92.22-.99,1.23-4.14-.47-4.4-1.1-.19-3.05.53-4.09.97-.28-.24-.63-.66-1.04-.61-1.05.14-1.89,1.84-2.44,2.69-.58-3.51.02-9.01-4.62-2.22-.46.66-.52,2.28-.58,3.14-.35-1.07-.6-2.41-1.46-3.02-.64-.17-1.53.3-2.09.61-2.88,1.62-.85,4.94-1.78,7.03l-.19.11c-.66-1.29-.69-2.81-1.71-3.19-.82.08-1.23.46-1.92.94.63-1.89,1.76-2.47,2.85-3.99,1.64-2.28,3.7-6.26-1.07-5.72.39-1.02.96-2.11.75-3.13-.5-.68-1.18-.44-1.29-.74-.55-1.6-.88-3.07-2.99-1.6-1.49,1.04-2.67,3.22-3.46,4.83-.14.28-.49.36-.77.42-.17-.06-.36-.09-.38-.24-.13-1.98.66-2.72.63-5l-2.12-.03c-.68-1.29-1.07-2.17-1.93-3.14l-2.56.79c-.47.93-1.32,2.42-1.53,2.8-2.17-.22-2.03.74-1.67,2.52.13.69.22,1.38.31,2.08-.52-.69-1.23-1.93-1.7-2.69-1.07-1.23-1.75-1.62-3-2.36l-1.21.19-.38.24c-1.07,2.26-.69,2.92.2,5.39-.83-.25-2.86-1.04-3.57-.33-.24,1.07.31,4.23.8,5.27.25.49,2.06,1.01,2.67,1.2-.57,1.05-1.15,1.79-1.02,2.96,1.1,1.76,3.07-.3,4.36,3.93-1.57-2.12-2.17-2.15-4.72-2.23-.27.93-.38,1.76-.94,2.52l-.17-.08c-.14-1.73.2-2.2.44-3.76-.52-.49-.75-.74-1.32-1.15-.3-.9-.85-3-1.78-3.33-2.37-.83-2.8,3.16-2.97,4.43-.38-1.97-.8-5.6-2.5-6.71-2.11-1.35-2.69,2.52-2.81,3.63-1.45-1.42-3.43-2.11-5.36-2.56l-.71.41c-.55,2.86.69,4.81,1.38,7.58-1.09-.33-3.03-1.05-4.04-.6-.22.28-.57.8-.88.91-4.48,1.78.71,4.04,2.47,4.86-.79.55-2.56,1.71-2.42,2.83.3,2.19,4.28,2.12,5.19,2.8-.03.35-.05.52-.05.86.94.96,5.68.38,5.38,2.15-.05.02-.09.03-.14.05-1.35.31-7.23-.03-8.43-.79-1.01-.63-1.68-1.7-2.69-2.33-.49-.3-1.2-.53-1.76-.31-1.92.77,2.72,8.07,2.14,10.43l-.2.11c-.93-.68-2.06-5.52-3.08-6.78-1.01-1.23-3.62-4.39-5.25-4.32-.38.14-.58.3-.75.68-.71,1.56-.53,3.57,0,5.17.08.24.08.13,0,.36-1.45.02-2.64-3.65-3.43-3.84-3.87-1.01-7.11-3.4-5.35,2.37-1.34-.42-2.08-.57-3-.52-.27.02-.52.09-.75.22-.42.25-.74.35-1.2.72-.27.22-.44.55-.49.9-.02.16-.03.35-.06.53-.09.82.2,1.64.82,2.19.55.49,1.12.96,1.16,1.59-1.27.53-3.21-1.38-5.03-.57-.46.44-.41,1.4-.58,1.48-4.25,2.2-1.82,3.21.99,4.48-.52.8-1.13,1.7-1.04,2.66,1.18,1.75,5.54-1.46,7.09-.8-.33.68-1.75,1.2-2.25,1.87-3.43,4.5-.17,4.4,3.08,4.64l.58.64c.17.19.38.35.61.39,1.56.33,3.16-1.82,4.34-2.64.77-.53,1.16-.72,1.93-1.1-1.78,3-4.98,8.33,1.81,5.66,3.32-1.31,4.89-.69,7.2-4.26.11-1.49-.28-2.8-.19-3.99,1.02-.91,3.84.5,4.78,1.18-1.09.93-5.66,2.96-4.87,5.05.46,1.2,1.56,2.67,2.15,3.87.39.8.77,1.57,1.13,2.41-1.34-1.53-2.19-2.96-3.37-4.54-.25-.33-.74-.35-1.12-.33-.88.46-.96,1.13-1.31,2.09-1.49-.24-5.72-1.43-5.76,1.12-.03,1.82,2.45,1.57,3.05,2.09.05.44.09.46-.11.83-1.01.13-2.17-1.21-3.11-.52-.83.61.06,2.23-.19,3.24-.28,1.05-.49,1.09-1.32,1.75.22.97,1.71,3.81.69,4.32-.72-.14-1.31-.42-1.82-.93-.47-1.01.75-2.19.91-3.51.33-2.52-.53-4.53-1.82-6.53l-.11-.05c-1.43-.71-1.53-1.16-2.7-2.01-6.53-4.81-3.19,2.45-3.84,4.06-1.95-.77-3.18-4.67-5.76-4.72-1.29-.03-1.24,1.45-1.29,2.36-1.24-.86-3.11-2.36-4.69-2-1.19,1.01.42,3.03,1.07,4.07-.39-.19-.8-.36-1.21-.5-1.21-.44-3.6-.75-4.78-.19-1.9.9,2.2,4.53,2.88,5.24-2.14-.41-3.85-.94-4.75.83-.28.57-3.05,1.16-3.37,2.22-.58,1.86,2.52,2.06,3.59,2.77,1.16.71,1.87,1.38,3.16,1.79-1.12.39-2.48.94-2.99,2.08.16,1.9,3.33,1.64,4.7,1.64.42,3.62,3.74.14,5.17-.64.53-.28,1.02-.47,1.59-.68-.74.91-2.59,3.37-1.59,4.53.55.19,6.37-1.38,6.92-1.68,1.23-.64,3.21-3.38,4.87-3.62l.14.13c-.5,1.53-2.99,3-2.36,5.2.47.3.9.14,1.57.11.72.39.2,1.26,1.27,1.27.83-.44,1.2-1.01,1.82-1.73l2-.28c.35-.6.6-.9,1.02-1.45.44-.09,1.27-.25,1.67-.38.38-.11.66-.39.82-.75.28-.72-.47-2.53-.74-3.35,2.15.77,11.64,3.07,10.69,6.57-1.54.88-4.78-6.34-9.12-.27l-.11.17c-1.92-.41-5.17-1.13-3.46,2.12.44.57,1.67,1.98,1.9,2.44-.9-.8-1.51-1.4-2.34-2.28-.94-.9-2.55-1.38-3.57-.3-1.9,2,1.18,4.12,1.05,6.35-.64-.47-1.16-2.28-1.62-3-1.78-2.85-4.83-4.23-8.1-4.42-.83-.05-2-.03-2.33.91-.22.6.64,2.03.93,2.63-.93.17-2.83-1.23-4.28-1.35-2.12-.2-5.16.77-2.06,2.78.64.41,1.43.52,2.15,1.02l-.06.17c-2.03.36-4.26-.93-6.32-.31-.75.24-1.54,1.09-1.12,1.87.47.88,2.26,1.56,3.16,1.95-1.35.66-5.28,3.13-5.33,5-.03,1.35,3.37,1.21,3.95,1.7,0,.46-.02.53.11.97,1.21.58,3.51-1.2,5.22-1.71l.22-.06c-.64.86-1.48,1.59-2.11,2.42-.75.99-2.34,4.45.3,4.06,2.39-.36,3.92-1.64,5.38-3.41-.08.24-.14.49-.22.72-.27.97-.69,3.18.75,3.38.75-.31,1.24-1.21,1.75-1.49,1.32-.77,3.55-1.1,4.26-2.59.49-1.01.74-1.86,1.35-2.85l1.38-.71c.47-.88,1.32-2.58,2.47-2.52.8,1.45-2.22,3.18-3.21,3.73.66,1.48.31,1.56.47,3.08.47.49.53-.06,1.16.3-.24.8-4.48,4.73.11,4.29-.02,1.16-.13,2.04.63,2.89,1.46.57,3.14-1.75,3.95-2.77.61-.75.88-1.89,1.16-2.81.96.97,3.13,4.36,4.76,3.18.58-1.26.14-3.19-.2-4.47,1.05.22,3.49,1.18,4.21.35.27-1.53-1.23-4.37-1.97-5.69,1.42.44,2.85.93,4.37.85,1.64-.11,3.19-.79,4.84-.55,1.92.27,4.26,1.7,5.94,2.67,2.39,1.42,4.04,3.6,5.42,5.98,1.73,2.96,2.86,6.43,2.92,9.89.08,3.63-1.01,7.48-2.03,10.96-2.42,8.35-5.9,17.67-4.39,26.46,3.38,19.59,27.09,22.5,29.88,33.71.49,1.97.09,4.01-.99,5.72-2.26,3.62-5.94,4.81-9.29,7.04-1.12.75-2.01,1.75-3.27,2.28-1.7.74-3.7.88-5.49,1.29,1.79,1.53,3.71,3.18,4.72,5.5.88,2.04.53,6.54-2.31,7.12-.71.16-2.61-1.13-3.41-.83-.05.55.55,2.23.74,2.83-1.27,3.22-4.69,2.88-7.37,1.81-3.59-1.43-4.86-4.89-6.2-8.21-4.23,8.77-7.2,18.59-5.94,28.37.77-2.03,1.78-3.95,3-5.72,5.41-7.72,11.1-9.12,19.22-12.53,1.18-.5,4.2-2.75,4.95-2.89l.09.22c-.3.86-1.43,1.93-2.11,2.59-6.1,6.12-10.36,13.57-16.56,19.62-.99.96-2.08,2.59-2.88,3.76,7.88,3.68,14.92,6.4,23.41,8.62-.49-4.39-1.48-7.82-1.57-12.42-.09-4.8.42-8.88.66-13.63.09-1.75-.47-5.57-.74-7.39.74.86,1.51,1.73,2.23,2.61,4.72,5.69,5.6,13.54,5.96,20.63,1.12-1.92,2.28-4.4,3.29-6.42,1.51-3.02,3.07-6.01,4.7-8.95-3.14,1.21-10.61,2.15-8.9-3.48-4.75-2.99-.08-6.9,2.89-8.76-2.61-.94-5.02-2.28-6.4-4.81-1.07-1.97-.25-3.49,1.64-4.43-1.6-2.77-.88-4.84,2.33-5.76,3.66-1.05,6.9.17,10.1,1.97-.2-4.91,1.12-10.3,6.56-11.64.16.05.31.09.46.16,1.62.55,2.03,1.48,2.74,2.89,6.2-4.98,8.05,4.04,6.46,8.68.28-.14.57-.28.85-.41,3.59-1.6,12.22-2.41,9.2,4.01,4.09,1.6,3.26,4.42.83,7.23-2.33,2.7-5.22,3.43-8.65,3.63,2.74,2.89,4.92,6.76,4.07,10.85-.49,2.41-2.91,2.25-4.73,1.78-.3,1.15-.53,2.03-1.78,2.52-1.81.71-4.42-.02-6.15-.69-2.83-1.09-3.77-2.97-4.84-5.58-2.42,5.61-5.11,10.96-7.64,16.53,7.63-5.71,13.66-8.35,23.27-8.57-3.71,2.53-7.99,5.77-11.27,8.79-5.87,5.41-9.21,8.74-16.24,12.56,2.14.58,5.19.99,7.44,1.32,14.99,2.04,30.21,1.53,45-1.56,10.19-2.11,22.25-5.93,31.51-10.69,17.67-9.1,33.93-23.93,45.4-40.32.69-.99,1.37-1.98,2.03-2.99,20.27-31.28,27.35-69.3,19.69-105.78ZM199.92,86.85c1.21,5.43,2.74,2.31,7.01,1.82.57.22,1.31.53,1.67,1.02l-.14.17c-2.28-.03-4.2-.02-6.45.42-.57.11-2.47.47-2.89.3-.49-.96.2-2.94.8-3.74ZM190.21,91.37c.64-1.23,1.37-.8,2.2-.38.55-1.2.8-2.06,1.48-3.29.57,1.57-.47,2,1.65,3.85-1.68.36-5.13,1.16-5.13,1.16l-.27-.27c-.06-.33-.11-.77.06-1.09ZM192.23,93.94c.38-.06.93.11.93.11-.71,1.05-3.63,2.22-4.86,2.72,0,0,2.61-2.58,3.93-2.83ZM94.97,90.25c.53.25,1.04,1.02,1.43,1.29,1.34.94,3.16,1.18,4.64,2.08-3.46-.31-4.54.02-6.07-3.37ZM105.46,92.78c-3.08-1.05-1.04-2.52.44-3.95l.39.08c.39.47.6,3.35.8,4.37l-1.64-.5ZM141.75,54.24c1.32,1.84,2.11,2.12,2.45,4.72.17,1.37-.44,5.83-1.23,6.73l-.22-.05-.28-.55c-1.21-3.05-1.48-3.95-3.29-6.81.94.22,1.59.53,2.41.06.71-.88.27-2.88.16-4.1ZM154.11,61.93c.93.55,1.46,4.04,1.26,4.87-.63.16-1.54.03-2.22-.03.02,2.08.52,2.8,1.4,4.59-1.02,6.18-4.7,10.72-8.96,14.97l-1.26,1.21c-.64-3.26.24-6.37.86-9.56.66-3.43,3.3-4.8,5.25-7.41,1.12-1.48,1.84-3.21,3.07-4.62.13-1.89-.68-2.23.6-4.03ZM154.14,122.82c-1.48,1.34-3.37,2.19-5.13,3.07-2.33,1.16-4.39,2.59-6.54,4.01-.03-4.91.24-11.35,1.97-15.93.47-1.24,1.73-2.88,2.48-4.03,1.02-1.57,2.15-3.16,3.3-4.65,3.68-4.06,8.43-9.09,13-12.11,2.64.24,2.53.91,5.63.33-.39,1.51-1.01,2.77-1.65,4.18-.57-1.23-1.4-3.68-3.02-3.4-.68.47-.91,1.21-1.15,1.97-.38,1.31-.61,2.67-.42,4.03.38,2.72,2.09,4.97,1.13,7.89-.77,2.37-7.6,12.8-9.61,14.64ZM161.17,90.49l.16-.05.16.09c-1.05,2.47-3.13,4.2-5.39,5.55l-.35-.05c-.69-1.37,1.01-3.81,2-4.69,1.26-.27,2.2-.46,3.43-.86ZM186.66,115.72c3.46-.33,4.5.83,7.06,2.85-.72.14-1.53.36-2.26.55-.49.09-6.51-2.61-7.44-2.99.96-.22,1.67-.3,2.64-.41ZM181.8,117.14c.83-.08,3.79.03,4.04.94-1.23.74-1.7,1.05-1.01,2.5l.09.17c-.19,1.02-2.04,1.56-2.92,1.7-1.21.22-1.9-.09-2.86-.82-1.29-.39-4.87-.83-5.47-1.93l.11-.33c1.18-1.07,6.35-2.01,8.02-2.23ZM176.19,102.56c3.49-2.66,4.94-4.48,9.12-5.94.39.11.74.71.99,1.05-1.23,3.02-2.72,4.09-4.4,6.68-1.19,2.67-2.23,4.39-3.88,6.75-4.67,6.67-8.21,8.51-16.51,10.19-.5.08-.88.25-1.16-.22.14-.94,2.36-4.45,2.94-5.47.83-1.49,1.93-3.73,2.94-5.02,2.61-3.33,6.64-5.5,9.97-8.02ZM170.95,102.7c.41-.03.24-.09.52.16-.06,1.87-3.05,3.96-4.43,4.95l-.28.09-.14-.17c.13-1.16,1.38-3.84,2.06-4.83l2.28-.2ZM172.43,73.93c1.12.31,1.87.46,3.03.64-.36-1.04-.5-1.59.85-1.89.72-.16,1.45-.33,2.17-.52.5.03.47.03.94.25.25.42.41,4.39-.6,5-1.12.02-1.4-.97-2.3-1.24-.64.46-.83,2-1.01,2.8-.09-1.15-.14-2.03-.8-3-1.43-2.08-3.62-1.23-4.7.68-.46.82-.55.99-.68,1.98-.06,1.1-.09,2.25-.13,3.35-.8-3-.88-3.08-3.05-5.54,2.44-.6,3.95-1.89,6.26-2.52ZM160.09,64.19c0,4.4,2.06,4.86,1.37,5.77-.69.91.41,2.47,1.48,2.04,1.7-.6,2.12-1.43,2.89-2.85,2.28,2.74,4.37,1.92,5.14,2.66-.53.5-2.66,1.2-3.48,1.6-1.04.52-1.43.77-2.41,1.46-2.19-1.49-2.63,1.07-3.9,2.39-.44.44-.72.68-1.21,1.02l-.17.13c-1.4-.63-2.5-.68-2.77,1.12-.38,2.52,3.93,2.92,3.77,4.69-.38.17-1.45-.28-2.23-.3-1.01-.03-1.32.02-2.33.17-.69-.39-1.32-.74-2.14-.66-.91.58-.31,1.82-.69,2.14-2.44,2.04-1.04,2.3.64,4.65l.08.11c-.13,4.09-1.81,7.42-4.7,10.24-1.73,1.54-3.74,3.43-5.57,4.83-.3-5.66.31-12.72,4.01-17.2,4.28-5.16,9.64-9.92,9.5-17.22-.03-1.78.49-3.1-1.12-4.34,1.57-.69,2.47-1.45,3.82-2.45ZM147.95,42.45c1.29,4.37,3.22,3.35,5.13-.09.42-.75.6-1.02,1.27-1.56.97.99-.47,3.08-.74,4.01-.6,2,3.02,2.74,3.74,4.25.25.55.02,1.31-.66,1.38-.88-.5-.94-1.62-1.43-2.33-.96-1.37-1.76-1.82-2.63-3.38-.55.36-.96.71-1.45,1.13-1.57,1.29-2.26,1.97-3.55,3.52-.03-1.97.16-4.94.31-6.93ZM147.25,56.32l.5-.03c.3-.33,1.68-2.69,1.98-3.19.25.52-1.2,5.9-1.73,6.65-.35.47-.8.83-1.29,1.16-.5-.53.08-3.96.53-4.59ZM147.9,61.61c2.47-3.22,7.78-8.95,11.04-11.26l.24.08.08.24c-.57.9-1.76,1.68-2.42,2.55-.86,1.18-1.27,3.21-2.44,4.12-.77.61-3.16.11-3.49,1.42-.25.93.57,2.75,1.07,3.52-1.6,3.7-2.3,5.3-5.27,8.15-.25.17-.28.19-.57.31l-.24-.16c-.69-1.76,1.01-7.66,2-8.96ZM140.71,41.46c.27.82.8,3.46,1.75,3.63,1.98.39,1.18-2.42,2.19-3.14l.24.06c.69.82.44,3.14.36,4.21l-.3,3.3c-1.18-1.84-1.86-2.11-3.44-3.52-1.4-1.24-1.38-2.48-1.48-4.18-.28-.44-.63-.9-.93-1.32.44.19,1.18.69,1.62.96ZM130.65,67.35c.63-.28,1.02-1.48,1.29-2.11.68.86,1.16,1.51,2,2.23,1.45-.52,1.46-.35,2.92-.35.27,0,.85-.52.97-.85.96-2.45-.31-4.42-1.01-6.65,1.73.8,3.62,5.98,4.47,7.8,1.98,4.26.53,10.08-.44,14.44-2.55-4.8-4.92-8.59-5.13-13.98l-1.2,1.16c-1.21.75-1.62-1.34-2.78-1.57l-.19.17c-.05,1.1,2.15,4.78-.08,5.28-.3-.25-1.54-2.89-2.04-3.63-.8-1.21-1.34-1.49-2.08-2.44,1.07-1.23,2.19,1.01,3.29.49ZM123.9,54.21c1.24-.25,2.06-.61,3.22-1.09.42.02.91.02,1.21.35-.17.68-2.22,1.1-3.25,1.86l-.14.09c-.31.28-.52.55-.93.57-.25-.49-.13-1.15-.11-1.78ZM119.06,61.77c2.08-.5,2.53-.8,4.14-2.25l.16.08c-.03.99-2.47,2.63-2.55,3.7.11,2.28,3.92,4.42,5.6,5.49,1.7,1.1,3.65,5.43,3.33,7.22l-.19.06c-.53-.35-.77-.77-1.16-1.29-1.73-2.53-2.96-4.39-4.45-7.06l-.25,1.67c-5.5-2.06-5.61-1.02-4.62-7.61ZM111.97,65.06c-.5-.33-1.89-.82-2.47-.97-.66-.14-1.42-.39-2.08-.58,1.01.03,1.4.05,2.41.27.52.08,1.12.2,1.64.25,1.15-1.24,1.18-1.13,1.68-2.74,1.38.57,3.79,7.08-1.18,3.77ZM117.55,70.34c2.3.08,3.3.77,5.08,2.17.42.33.68.57,1.18.77.64.33,1.64-.57,2.17-.09,1.49,1.27,1.68,3.92.47,5.44-.25.33-.49.3-.85.33-.14-.08-.28-.14-.41-.2-.49-1.98-.36-2.86-1.81-4.34-.91-.55-2.41-1.57-3.02-.25-.14.31-.14.28-.41.5-.8-.57-2.53-2.17-3.27-1.01-.38.63-.49,3.1-.6,3.92-1.15-1.1-1.6-2.39-2.36-3.82,1.79-1.35,1.75-3.05,3.82-3.41ZM108.74,92.95l1.65-.33c.24-.53.44-1.1.64-1.64,3.81.63,4.65,4.78,4.95,7.96l-1.34-.8c-1.86-1.4-4.01-3.57-5.91-5.19ZM106.76,104.79c1.15.52,3.9,5.14,4.54,6.32-.86-.3-1.73-.55-2.61-.82-2.97-.91-4.61-.83-5.5-4.09,1.04-.5,2.47-1.01,3.57-1.42ZM96.64,111.54c-1.02-.03-2.85-.33-3.99-.44.99-.13,3.32-.8,3.82-.82,2.59-.06,3.05.27,5.76-.31,1.71-.25,2.34.24,3.49,1.37-.94-.06-3.19-.52-3.85-.42-2.25.33-2.86.68-5.22.63ZM108.24,115.03c-2.37-1.29-4.61-3.46-5.74-.44-.3.82-1.67.41-2.3-.09-.53-1.26,2.3-2.06,3.16-2.39,1.43-.16,9.09.49,9.51,1.75-.5,1.1-3.44,1.68-4.64,1.18ZM122.22,114.06c-.64.3-1.81-.13-2.53-.33-1.86-.64-3.88-1.34-5.54-2.58-1.12-.83-3-4.36-3.21-5.66-.16-1.02,2.59-3.87,3.41-4.75,2.64.88,8.66,11.27,7.86,13.32ZM133.84,124.14c-.93-1.1-1.78-2.33-2.69-3.37-3.7-4.21-7.67-9.54-7.48-15.44.11-3.85,3.27-6.86,4.23-9.89-.52-.38-.97-.53-1.56-.79-1.73.55-2.22,2-2.96,3.51l-.35-1.86c-.94,2.28-1.12,5.22-1.35,7.71-3.52-2.85-2.72-5.27-4.06-9.18-.47-1.35-1.27-2.96-1.84-4.34.79-.09,1.57-.19,2.36-.3,0-.77-.14-2.39.33-2.92.38.69.19,2.2-.02,2.94-.06,2.3,3.52,4.84,5.13,3.71.66-1.38-.9-3.22-1.68-4.31,1.51.38,2.85,1.09,4.29,1.7-.05-1.31-.13-2.72-.39-3.99,1.82,3.29,3.33,1.23,3.35,6.54l-.2-.09c-1.21-.57-2.75-2.04-3.55-1.97-.6.97.63,1.87,1.32,2.39.42.3.93.68,1.37.94,3.65,1.73,8.87,10.3,8.88,14.25.03,4.37-1.9,10.5-3.13,14.77ZM138.04,102.06l-.85-1.27c-2.72-3.92-7.14-9.83-5.66-14.62.33-1.35,1.54-3.44,1.42-4.83-.46-5.22-3.33-3.44.79-8.19,1.34,1.6,1.89,5.06,2.74,6.95,1.6,3.51,3.55,6.71,3.44,10.72-.11,3.84-1.2,7.5-1.87,11.24ZM160.81,102.36c-1.67,1.07-.99,2.48-.63,4.07.64,2.86-.39,6.68,4.15,4.56,3.95-2.56.41-8.68-3.52-8.63Z"/>
  <path class="st2" d="M206.38,103.4c-.36.77-1.7.2-2.26-.09-.2-.13-.41-.25-.61-.38-.14-.25-.05-.14-.39-.25-1.05-.71-1.45-.97-2-2.14-.39-.8-.68-.69-1.34-1.15l-.2-.14c.38.02.69.09,1.07.17q.11-.28.28-.53l.25.06-.08.38c.53.35,1.97.03,2.23.19.83.49,2.77,3.03,3.05,3.88Z"/>
  <path class="st2" d="M183.25,90.43c-.09,1.1.19,1.96.21,2.93-.84-1.16-1.43-1.77-.21-2.93Z"/>
  <path class="st3" d="M174.52,181.53c1.5-.11,3.52-.06,5.08-.06h8.8s27.62-.02,27.62-.02h47.86c9.64,0,19.37-.07,29,.05-8.73,28.44-25.97,52.5-51.12,68.69-2.99,2.2-9.51,5.42-12.93,7.14-4.98-1.43-14.72-5.69-17.03-10.53-1.99-5.33,4.4-9.01,7.61-11.37,5.75-4.22,13.53-8.83,16.24-15.48,1.19-2.93,1.18-6.21-.03-9.13-5.15-12.14-28.24-18.13-39.44-22.62,4.4-.35,9.33.07,13.78-.06,1.86-.06,3.93.1,5.72-.38-6.1-.49-12.26-.73-18.36-1.26-3.72-.32-7.99-.34-11.53-1.48-3.68-1.18-7.67-2.13-11.27-3.48Z"/>
  <line class="st0" x1="150.15" y1="164.12" x2="150.12" y2="163.98"/>
  <path class="st5" d="M102.56,251.38c-.61-1.16-1.97-2.36-2.66-3.51-2.78-4.51-4.06-9.88-5.63-14.89-2.91-9.34-5.36-18.73-6.26-28.49-.22-2.23-.88-8.93-2.28-10.46-1.16,3.71-.72,5.71-.38,9.54.8,9.59,2.58,19.07,5.28,28.32,1.24,4.15,3.35,8.76,4.18,12.82-1.82-3.32-3.35-6.59-5.08-9.94-3.29-6.42-7.63-12.69-12.82-17.72-3.82-3.63-9.01-6.59-13.27-9.77-4.48-3.35-8-7.37-11.53-11.67,3.27,7.25,6.76,13.35,10.6,20.3,9.39,16.65,16.92,25.3,32.49,36.59,4.54,3.29,8.26,6.38,13.38,9.12-2.23-3.4-4.15-6.65-6.04-10.25ZM73.11,221.79c2.37.93,20.47,21.24,21.53,23.7-4.28-2.7-18.62-19.22-21.53-23.7Z"/>
  <path class="st1" d="M104.45,182.33c.14,1.09-.96,2.63-1.56,3.44-3.44,4.69-8.05,3.11-12.91,3.18-.41.02-.69.31-.93.63.61,2.23,7.66-.02,10.11,2.97,1.29,1.57,2.48,3.41,2.67,5.87.11,1.24-1.92,1.42-2.55,1.71-.08.3-.31,1.56-.68,1.65-5.41,1.4-10.77-5.87-12.75-9.09.46-2,1.98-5.36,2.88-7.25-.75.74-1.68,1.93-2.81,1.68-.96-1.02-.05-3.1-.93-3.88-.66.53-.42,1.79-1.32,1.87-.46-.35-.52-.57-.79-1.09-.31-1.13-1.54-4.92-2.01-5.98.25,2.31.63,4.12,1.4,6.32.3.88.8,2.3-.22,2.81-3.07.13-6.29-5.41-7.15-7.78-.86-2.33-1.57-4.89-.06-7.15,1.59-2.34,3.95-.39,5.49.75,1.56-4.25,2.92-7.78,6.93-2.72,3.88,4.89.96,9.73.36,14.83l-.03.28c3.03-4.67,4.23-7.74,10.36-8.73,4.98-.82,4.7.22,3.77,4.58.86.05,2.5-.02,2.72,1.09Z"/>
  <path class="st1" d="M64.37,195.59c-.22-1.27.88-1.62,1.82-2.11-2.41-.99-3.27-1.15-1.59-3.55,2.34-3.37,6.01-3.79,9.77-3.68,3.49.11,6.79,1.59,9.2,4.1-2.89,1.73-3.33,3.19-6.86,4.65-1.24.53-2.85,1.38-3.92,2.22-1.65.68-7.41.05-8.43-1.64Z"/>
  <path class="st1" d="M84.09,196.93c-.75,3.66-6.23,10.47-8.1,3.51-.39.36-.79.72-1.15,1.13-.82.91-1.42,2.69-2.85,2.72-1.49.05-1.53-2.31-1.34-3.33.3-1.46,1.13-2.61,2.25-3.55.42-.19,1.07-.69,1.57-.91.9-.42,1.81-.83,2.7-1.24,3.96-1.65,3.7-1.6,6.89-4.31,2.74.39.31,4.5.02,5.99Z"/>
  <path class="st1" d="M84.09,196.93c-.75,3.66-6.23,10.47-8.1,3.51-.39.36-.79.72-1.15,1.13-.82.91-1.42,2.69-2.85,2.72-1.49.05-1.53-2.31-1.34-3.33.3-1.46,1.13-2.61,2.25-3.55.42-.19,1.07-.69,1.57-.91.9-.42,1.81-.83,2.7-1.24,3.96-1.65,3.7-1.6,6.89-4.31,2.74.39.31,4.5.02,5.99Z"/>
  <path class="st5" d="M120.39,225.69c.26.42.24,1.73.05,2.2-3.52,8.37-7.08,16.4-7.31,25.66-.14,5.54.71,7.48,2.53,12.47-.44-.31-1.33-.88-1.79-1.13-4.5-2.35-6.14-9.28-7.24-14.17-1.23-5.19-1.5-12.37.9-17.23,2.21.39,3.52.27,5.74-.08-.74,1.99-5.06,11.74-3.28,13.08.65-.44,1.86-4.75,2.17-5.72,2.24-6.88,3.29-9.67,8.24-15.09Z"/>
  <path class="st1" d="M138.43,231.76c-.25.53-.3.63-.77.96-.85.25-3.85-.6-5.24-.57v.24c.06,2.99,1.89,5.69-3.13,4.8-2-.35-3.62-1.37-4.78-3.05-2.04-3.13-2.64-7.8-2.74-11.51,0-.33.35-.5.6-.63.31,0,.66,0,.97.02,2.56,1.37,3.19,5.09,5.13,7.83-.8-2.91-2-5.52-3.16-8.29.71-2.48,5.91-.27,7.26.68,2.78,1.93,7.8,5.58,5.85,9.53Z"/>
  <path class="st5" d="M175.72,254.87c-1.79,1.46-3.63,2.85-5.36,4.39-3.9,3.48-15.77,15.22-20.98,14.59-.52-.06-1.07-.22-1.57-.39.24-.41.36-.8.5-1.26,3.02-6.54,6.21-12.99,9.59-19.36,1.51-2.86,3.03-5.93,4.67-8.71l1.57-3.08c.47-.49,1.75-2.94,2.25-3.77,0,.85-.03,1.12-.19,1.93-.46,2.31-1.18,3.7-2.12,5.87-3.66,8.19-7.78,16.18-11.48,24.31,1.59-1.73,3.16-3.44,4.89-5.03,4.59-4.21,12.03-8.22,18.22-9.48Z"/>
  <path class="st1" d="M137.88,206.73c1.61-.19,2.83.42,4.07,1.38,2.35,1.82-.39,3.21-1.74,4.39,1.82.87,5.61.87,2.31,4.94-1.56,1.92-6.23,2.69-8.69,2.76-1.8-.08-6.16-.69-7.56-1.73-3.04-2.26,2.57-7.65,4.38-9.06,2.26-1.75,4.42-2.39,7.22-2.68Z"/>
  <polygon class="st1" points="166.86 235.55 166.82 235.42 166.89 235.4 166.88 235.42 166.96 235.53 166.86 235.55"/>
  <path class="st1" d="M176.22,246.19c.22.94.66,2.5.41,3.4-.71.5-1.53.19-2.34.09-5.98-.66-7.75-4.78-7.26-10.36.24-1.75-.14-2.67.6-4.53.5-.27.63-.38,1.2-.33,2.48,1.79,3.68,3.95,4.84,6.68-.69-3.88-1.49-4.18-3.93-7.08.27-.25.52-.57.94-.47,4.58,1.07,8.48,3.48,10.28,8,.3.72.49,1.26.64,2.01,1.26,5.77-2.31,3.44-5.38,2.58Z"/>
  <polygon class="st4" points="166.88 235.42 166.96 235.53 166.86 235.55 166.82 235.42 166.89 235.4 166.88 235.42"/>
  <path class="st1" d="M108.25,202.11c3.52-.32,7.73,3.5,9.24,6.48.78,1.53,3.51,7.89,1.04,8.92-1.84.77-5.16.03-7.02-.63-4.66-1.72-8.21-4.98-8.61-10.1.5-1.1,1.45-3.15,2.53-3.65,1.67.06,1.38,2.28,2.27,3.08.79-.51-.52-2.73.56-4.09Z"/>
  <path class="st1" d="M171.08,227.95c-.61.68-1.37,1.62-2.31,1.56l-.24-.22c0-2.14.17-4.04.13-6.26-.55,1.65-.83,4.31-1.01,6.05h-.2c-.33-.24-.47-.63-.68-1.01-.06-.69-.38-1.73-.57-2.44-.11,1.07-.11,2.37-.13,3.46-.47-.8-.86-1.54-1.45-2.26l-1.02-1.93c-1.16-3.05-1.67-6.2-.2-9.26.55-1.15,2.61-4.65,4.28-3.87.91.42,1.68,2.8,2.08,3.82,1.23-1.02,3.93-3.76,5.25-1.43,2.67,4.69-.82,10.3-3.93,13.79Z"/>
  <path class="st1" d="M125.17,195.48c1.71.21,4.17,3.47,4.61,5.03.69,2.45.56,5.65-.73,7.92-1.36,2.39-4.03,5.49-6.54,6.73-.3.13-.72-.2-.98-.39-1.56-2.42-3.78-8.14-3.43-11.05.4-3.32,2.98-9.41,6.24-3.93,0-1.6-.69-3.35.83-4.31Z"/>
  <path class="st1" d="M166.01,229.6c-.03.24-.08.27-.16.5l-.31.11c-.64-.13-1.37-.68-1.95-1.04-.71-.44-1.35-.79-2.08-1.18.69.69,1.48,1.46,2.09,2.2.28.49.38.46.33.9-.36.14-.61.08-1.01.03-.55-.28-4.84-1.24-5.8-1.46,1.59,1.12,4.28,1.93,6.16,2.23.66.17.93.33,1.45.8l-.08.24c-.52.09-.49,0-.91.03l-6.67.49c-2.91-.05-6.73-1.34-8.37-3.88-.31-.47-.74-1.26-.6-1.84.68-.79,2.01-1.09,3.03-1.42-.57-.86-1.81-2.41-1.93-3.33-.2-1.49,2.85-2.06,3.85-2.08,4.03-.03,7.08,1.95,9.89,4.62.35.41.96,1.05,1.26,1.45.64.91,1.21,1.68,1.79,2.63Z"/>
  <path class="st1" d="M187.79,229.43c-2.53,5.41-8.81,5.43-13.87,4.47-1.12-.2-2.64-.25-3.33-1.27,0-.71.3-.96.82-1.4,1.49-.9,2.92-1.86,4.61-2.36l.17-.05c-1.26-.27-3.68.8-4.69,1.57-.57.17-.64.31-1.13.2-.11-.44.02-.94.28-1.31,2.33-3.11,5.96-6.23,9.77-7.26,1.34-.35,5.08-.57,5.66.91-.14.97-1.07,2.42-1.54,3.37,1.15.3,2.78.52,3.51,1.34.24.74.06,1.1-.25,1.79Z"/>
  <path class="st5" d="M101.62,210.07c1.96,2.75-.63,11.14-.55,14.57-.02,1.84,1.17,3.61,1.22,5.43.2,7.59.42,13.85,1.87,21.34-.65-.84-.89-1.17-1.69-1.88-.37-.32-1.3-1.1-1.5-1.49-1.51-3-2.55-7.1-3.6-10.29-.63-1.91-.79-5.42-.67-7.32.32-5.27,2.43-15.97,4.93-20.36Z"/>
  <path class="st1" d="M113.6,218.75c1.62-.21,4.82-.41,5.73,1.16.54.92.26,1.65.04,2.6.63-.23,1.48-.45,2.13-.65-1.44,3.27-6.23,8.22-9.71,9.27-3.01.72-4.06.46-5.18-2.33-1.75-1.18-4.61-2.22-2.32-4.88,2.4-2.79,5.58-4.8,9.3-5.16Z"/>
  <path class="st1" d="M166.31,237.15l.08.13c-.5.83-1.78,3.29-2.25,3.77-.3.06-3.81,3.32-5.05,3.87-3.05,1.37-9.2,2.86-6.53-2.88-1.2-.22-3.57-.71-2.36-2.59,1.82-2.85,5.91-4.47,9.04-5.36,1.15-.16,4.47-1.04,5.49-.46-.33.71-2.08,1.89-2.85,2.86.64-.31,2.97-1.45,3.22-2.04.75-.06.83-.03,1.49.46-.08.79-.14,1.48-.3,2.25Z"/>
  <path class="st5" d="M135.14,243.62l.06.04c-.05.31-7.36,9.58-8.21,10.55-2.93,3.33-6.68,6.47-8.53,10.74-.19.45-.36,1.54-.63,1.79l-.16-.27c-1.59-3.25-.97-6.12.47-9.3,2.1-4.66,6.12-8.82,10.74-11.02,1.96-.94,4.22-1.73,6.26-2.52Z"/>
  <path class="st5" d="M145.03,243.67c3.65,6.28,4.67,13.88,4.24,21.11-.12,1.95-.83,4.87-1.27,6.83l.32.6c-.16.45-.27.84-.51,1.25l-.22-.1c-.31-.18-.92-.43-1.26-.59-.34-4.28-1.45-8.44-1.55-12.99-.13-5.59,1.03-10.62.26-16.12Z"/>
</svg>
